# xmcd CD database file
# Generated: Thu Dec 26 19:51:12 2002 by KSCD
# 
# Track frame offsets:
#       150
#       8807
#       26067
#       36345
#       54180
#       67062
#       79175
#       95495
#       103995
#       105640
#       113962
#       126767
#       147405
#       158430
#       183295
#       191425
#       208350
#       222980
#
# Disc length: 3041 seconds
#
# Revision: 2
# Processed by: cddbd v1.4PL0 Copyright (c) Steve Scherf et al.
# Submitted via: Kscd 1.3.3
#
DISCID=040bdf12
DTITLE=Blind John Davis - Moanin' The Blues
DYEAR=1900
DGENRE=
TTITLE0=It's My Boogie
TTITLE1=When I Lost My Baby
TTITLE2=Dippermouth Blues
TTITLE3=Summertime
TTITLE4=Got The World On A String
TTITLE5=Jim Town Blues
TTITLE6=St. James Infirmary
TTITLE7=Pinetop's Boogie
TTITLE8=Little Break Theme
TTITLE9=Boogie'n Roll
TTITLE10=Cow Cow Blues
TTITLE11=Everyday I Have The Blues
TTITLE12=Limehouse Blues
TTITLE13=Moanin' The Blues
TTITLE14=Frankie and Johnny
TTITLE15=Baby Won't You Please Come Home
TTITLE16=Kansas City
TTITLE17=Good Night My Friends
EXTD=
EXTT0=
EXTT1=
EXTT2=
EXTT3=
EXTT4=
EXTT5=
EXTT6=
EXTT7=
EXTT8=
EXTT9=
EXTT10=
EXTT11=
EXTT12=
EXTT13=
EXTT14=
EXTT15=
EXTT16=
EXTT17=
PLAYORDER=
